#!OML:ASF H:\Pregnant\Project 1\Capture day 1\Session 1\femalepreg.ASF
:FULLY-SPECIFIED
:DEGREES
687
root -6.27636 16.0148 -20.7371 200.825 0.000570668 -179.101
lowerback -14.7154 0.704588 -3.77387
upperback -5.7486 2.3549 -1.78669
thorax 2.11174 1.5572 0.65347
lowerneck -26.0127 8.69231 7.91464
upperneck 34.028 10.4058 -5.95028
head 17.7888 3.81328 -1.83773
rclavicle 1.31198e-014 -2.54444e-014
rhumerus -4.95708 25.8468 -73.0616
rradius 55.2773
rwrist -36.9107
rhand -26.8158 -48.2493
rfingers 7.12502
rthumb -0.242159 -78.2289
lclavicle 1.31198e-014 -2.54444e-014
lhumerus -8.90295 -34.239 62.6588
lradius 58.4977
lwrist 62.2529
lhand -35.294 29.3705
lfingers 7.12502
lthumb -8.42851 59.1823
rfemur -46.1379 9.12052 20.0362
rtibia 72.3698
rfoot -4.35052 -8.93048
rtoes -7.20011
lfemur -43.8532 -7.21339 -20.3388
ltibia 31.7219
lfoot -4.26886 6.18918
ltoes -34.398
688
root -6.26936 16.0159 -20.8257 200.877 -0.743705 -179.095
lowerback -14.7497 1.67595 -3.94168
upperback -5.68926 2.0282 -1.90373
thorax 2.15709 0.685011 0.545876
lowerneck -25.9872 8.69978 7.96214
upperneck 34.0188 10.4167 -5.98707
head 17.7861 3.8218 -1.8595
rclavicle 2.24627e-014 -3.33958e-014
rhumerus -5.00663 25.5962 -73.1221
rradius 55.3458
rwrist -36.7282
rhand -26.6898 -48.1209
rfingers 7.12502
rthumb -0.120447 -78.1006
lclavicle 2.24627e-014 -3.33958e-014
lhumerus -8.71053 -34.4078 62.5608
lradius 58.37
lwrist 62.2264
lhand -35.4247 29.0054
lfingers 7.12502
lthumb -8.55462 58.8121
rfemur -46.9214 8.99659 19.8453
rtibia 72.2547
rfoot -4.80237 -8.81099
rtoes -7.3355
lfemur -43.7846 -7.44837 -20.3104
ltibia 31.9735
lfoot -4.78071 5.83771
ltoes -34.1194
689
root -6.26225 16.0185 -20.9168 200.907 -1.45534 -179.114
lowerback -14.7985 1.62473 -3.8671
upperback -5.64062 1.96628 -1.93516
thorax 2.24138 0.655889 0.463109
lowerneck -26.0563 8.72765 8.13959
upperneck 34.0804 10.453 -6.17794
head 17.8727 3.82781 -1.96769
rclavicle -2.36057e-014 1.98785e-014
rhumerus -5.06256 25.3406 -73.1561
rradius 55.4323
rwrist -36.5426
rhand -26.612 -47.9902
rfingers 7.12502
rthumb -0.0453678 -77.97
lclavicle -2.36057e-014 1.98785e-014
lhumerus -8.5229 -34.4943 62.5055
lradius 58.2736
lwrist 62.1461
lhand -35.5475 28.7511
lfingers 7.12502
lthumb -8.67318 58.553
rfemur -47.643 8.95545 19.5816
rtibia 72.0218
rfoot -5.26479 -8.72179
rtoes -7.45886
lfemur -43.6455 -7.66826 -20.3143
ltibia 32.1748
lfoot -5.28324 5.49119
ltoes -33.8467
690
root -6.25486 16.023 -21.0098 200.932 -2.13872 -179.151
lowerback -14.8539 1.58696 -3.82271
upperback -5.58809 1.92693 -1.95885
thorax 2.33076 0.638484 0.40901
lowerneck -26.1518 8.7286 8.28816
upperneck 34.1538 10.4624 -6.37447
head 17.9681 3.81738 -2.08071
rclavicle -2.83268e-015 8.74653e-015
rhumerus -5.13606 25.0905 -73.1576
rradius 55.5323
rwrist -36.3766
rhand -26.5839 -47.8708
rfingers 7.12502
rthumb -0.018171 -77.8505
lclavicle -2.83268e-015 8.74653e-015
lhumerus -8.34156 -34.5295 62.4961
lradius 58.2093
lwrist 62.0491
lhand -35.7039 28.5194
lfingers 7.12502
lthumb -8.8241 58.3149
rfemur -48.3217 9.00432 19.2513
rtibia 71.6713
rfoot -5.71 -8.68668
rtoes -7.63653
lfemur -43.4513 -7.88952 -20.3311
ltibia 32.3137
lfoot -5.75752 5.16216
ltoes -33.6205
691
root -6.24707 16.0284 -21.1024 200.957 -2.80736 -179.19
lowerback -14.9141 1.56617 -3.78816
upperback -5.53749 1.91116 -1.97176
thorax 2.41896 0.633066 0.375489
lowerneck -26.2163 8.72227 8.38905
upperneck 34.2119 10.4736 -6.54211
head 18.0415 3.80707 -2.1729
rclavicle 3.94588e-014 7.15625e-015
rhumerus -5.23199 24.8644 -73.117
rradius 55.6395
rwrist -36.2634
rhand -26.6351 -47.6831
rfingers 7.12502
rthumb -0.0676537 -77.6628
lclavicle 3.94588e-014 7.15625e-015
lhumerus -8.16969 -34.5323 62.5364
lradius 58.1834
lwrist 61.9561
lhand -35.7315 28.7241
lfingers 7.12502
lthumb -8.85071 58.5185
rfemur -48.9846 9.13605 18.8694
rtibia 71.222
rfoot -6.14129 -8.71064
rtoes -7.81069
lfemur -43.2272 -8.12815 -20.3309
ltibia 32.3989
lfoot -6.18994 4.85874
ltoes -33.4446
692
root -6.23861 16.0336 -21.1948 200.974 -3.46026 -179.226
lowerback -14.9503 1.55701 -3.77078
upperback -5.49463 1.91118 -1.96724
thorax 2.48431 0.636377 0.371816
lowerneck -26.2579 8.72054 8.46583
upperneck 34.2491 10.497 -6.68724
head 18.0953 3.80371 -2.24761
rclavicle 8.24956e-015 -3.97569e-014
rhumerus -5.34966 24.657 -73.0424
rradius 55.7497
rwrist -36.1906
rhand -26.754 -47.3735
rfingers 7.12502
rthumb -0.182446 -77.3532
lclavicle 8.24956e-015 -3.97569e-014
lhumerus -8.02882 -34.4901 62.6349
lradius 58.1967
lwrist 61.8511
lhand -35.7824 28.8968
lfingers 7.12502
lthumb -8.89985 58.6891
rfemur -49.6277 9.3315 18.4462
rtibia 70.6905
rfoot -6.54229 -8.78296
rtoes -8.03638
lfemur -42.9763 -8.38707 -20.3082
ltibia 32.449
lfoot -6.58667 4.59261
ltoes -33.3257
693
root -6.22945 16.0379 -21.2861 200.997 -4.11817 -179.269
lowerback -14.9892 1.55753 -3.76814
upperback -5.46063 1.92441 -1.951
thorax 2.54032 0.64625 0.390834
lowerneck -26.174 8.64721 8.32323
upperneck 34.2074 10.4492 -6.65202
head 18.0311 3.7769 -2.21921
rclavicle 5.2181e-015 2.38542e-015
rhumerus -5.49797 24.4616 -72.9315
rradius 55.8608
rwrist -36.1591
rhand -26.9641 -46.889
rfingers 7.12502
rthumb -0.385402 -76.8684
lclavicle 5.2181e-015 2.38542e-015
lhumerus -7.92012 -34.428 62.7923
lradius 58.2499
lwrist 61.7469
lhand -35.7329 29.3476
lfingers 7.12502
lthumb -8.85206 59.142
rfemur -50.2741 9.54873 17.977
rtibia 70.102
rfoot -6.92784 -8.88416
rtoes -8.34363
lfemur -42.732 -8.67839 -20.2691
ltibia 32.488
lfoot -6.95539 4.35898
ltoes -33.2973
694
root -6.2195 16.041 -21.377 201.016 -4.77818 -179.312
lowerback -15.0139 1.56338 -3.77968
upperback -5.42996 1.94573 -1.91926
thorax 2.58379 0.660827 0.435079
lowerneck -25.9762 8.51367 8.01536
upperneck 34.0747 10.3419 -6.48768
head 17.8574 3.73124 -2.11733
rclavicle -2.72335e-014 -3.33958e-014
rhumerus -5.64779 24.296 -72.7761
rradius 55.9597
rwrist -36.1662
rhand -27.1918 -46.2553
rfingers 7.12502
rthumb -0.605378 -76.2341
lclavicle -2.72335e-014 -3.33958e-014
lhumerus -7.85056 -34.3367 63.0014
lradius 58.336
lwrist 61.6372
lhand -35.6885 29.6287
lfingers 7.12502
lthumb -8.80923 59.4248
rfemur -50.9134 9.7911 17.4646
rtibia 69.4623
rfoot -7.28449 -9.00048
rtoes -8.64393
lfemur -42.4861 -8.97258 -20.2213
ltibia 32.5269
lfoot -7.31861 4.12975
ltoes -33.2703
695
root -6.20863 16.0418 -21.4662 201.039 -5.45684 -179.358
lowerback -15.034 1.56745 -3.80125
upperback -5.41173 1.9635 -1.87198
thorax 2.61076 0.67366 0.500424
lowerneck -25.6938 8.32855 7.56362
upperneck 33.9006 10.1789 -6.20964
head 17.6158 3.66507 -1.95425
rclavicle -3.19049e-014 -1.74931e-014
rhumerus -5.81477 24.1663 -72.5915
rradius 56.051
rwrist -36.2075
rhand -27.4474 -45.468
rfingers 7.12502
rthumb -0.852191 -75.446
lclavicle -3.19049e-014 -1.74931e-014
lhumerus -7.83848 -34.2409 63.2603
lradius 58.445
lwrist 61.545
lhand -35.5442 29.9731
lfingers 7.12502
lthumb -8.66995 59.7751
rfemur -51.5605 10.0229 16.9175
rtibia 68.7872
rfoot -7.59248 -9.11452
rtoes -9.0246
lfemur -42.2593 -9.27056 -20.1657
ltibia 32.5716
lfoot -7.67441 3.89125
ltoes -33.2708
696
root -6.19707 16.0426 -21.5549 201.059 -6.15202 -179.407
lowerback -15.0406 1.57042 -3.8303
upperback -5.39701 1.97985 -1.81138
thorax 2.62598 0.686325 0.58337
lowerneck -25.4189 8.12747 7.01832
upperneck 33.732 9.99818 -5.84386
head 17.367 3.593 -1.74125
rclavicle -2.98177e-014 1.43125e-014
rhumerus -5.97782 24.0669 -72.3717
rradius 56.1336
rwrist -36.2894
rhand -27.7069 -44.5817
rfingers 7.12502
rthumb -1.10286 -74.5586
lclavicle -2.98177e-014 1.43125e-014
lhumerus -7.85748 -34.1449 63.5514
lradius 58.5653
lwrist 61.4673
lhand -35.3727 30.2204
lfingers 7.12502
lthumb -8.50446 60.0291
rfemur -52.1948 10.2858 16.3199
rtibia 68.0665
rfoot -7.83985 -9.24313
rtoes -9.41683
lfemur -42.0349 -9.57494 -20.1038
ltibia 32.6178
lfoot -8.02887 3.6478
ltoes -33.2712
697
root -6.18474 16.0434 -21.6429 201.077 -6.86762 -179.458
lowerback -15.0306 1.56802 -3.86524
upperback -5.38869 1.98824 -1.73664
thorax 2.62508 0.695519 0.682666
lowerneck -25.2059 7.93775 6.46347
upperneck 33.611 9.82126 -5.44219
head 17.1598 3.52389 -1.51099
rclavicle -1.02374e-014 2.06736e-014
rhumerus -6.14262 24.0035 -72.1294
rradius 56.2118
rwrist -36.4123
rhand -27.984 -43.6182
rfingers 7.12502
rthumb -1.37047 -73.5936
lclavicle -1.02374e-014 2.06736e-014
lhumerus -7.90732 -34.0705 63.8644
lradius 58.6756
lwrist 61.4234
lhand -35.1974 30.1726
lfingers 7.12502
lthumb -8.33525 59.9881
rfemur -52.8125 10.5788 15.6717
rtibia 67.303
rfoot -8.02132 -9.37971
rtoes -9.754
lfemur -41.8102 -9.88179 -20.0359
ltibia 32.6595
lfoot -8.3802 3.39015
ltoes -33.2675
698
root -6.17159 16.0445 -21.7306 201.088 -7.60568 -179.511
lowerback -15.0074 1.56154 -3.90214
upperback -5.38432 1.99035 -1.6516
thorax 2.61268 0.701992 0.792464
lowerneck -25.0711 7.78669 6.00077
upperneck 33.5455 9.67805 -5.0912
head 17.0182 3.46899 -1.31149
rclavicle 1.94809e-014 -3.57812e-014
rhumerus -6.30656 23.9708 -71.8686
rradius 56.2826
rwrist -36.5695
rhand -28.2848 -42.6444
rfingers 7.12502
rthumb -1.66093 -72.6177
lclavicle 1.94809e-014 -3.57812e-014
lhumerus -7.9834 -34.0169 64.1922
lradius 58.7962
lwrist 61.3852
lhand -35.0077 30.0566
lfingers 7.12502
lthumb -8.15218 59.8794
rfemur -53.4081 10.8973 14.9718
rtibia 66.4961
rfoot -8.13068 -9.52141
rtoes -10.0141
lfemur -41.5765 -10.1954 -19.9619
ltibia 32.6853
lfoot -8.72179 3.11746
ltoes -33.2785
